<?xml version="1.0" encoding="UTF-8"?>
<!DOCTYPE svg PUBLIC "-//W3C//DTD SVG 1.1//EN" "http://www.w3.org/Graphics/SVG/1.1/DTD/svg11.dtd">
<!-- Creator: CorelDRAW -->
<svg xmlns="http://www.w3.org/2000/svg" xml:space="preserve" width="6.77333E+006px" height="3.61244E+007px" style="shape-rendering:geometricPrecision; text-rendering:geometricPrecision; image-rendering:optimizeQuality; fill-rule:evenodd; clip-rule:evenodd"
viewBox="0 0 6.77333e+006 3.39372e+007"
 xmlns:xlink="http://www.w3.org/1999/xlink">
 <defs>
  <style type="text/css">
   <![CDATA[
    .str1 {stroke:#C2C1C1;stroke-width:1762.5}
    .str2 {stroke:#AAA9A9;stroke-width:3175}
    .str3 {stroke:white;stroke-width:7350}
    .str0 {stroke:#198D8D;stroke-width:7350;stroke-opacity:0.149020}
    .fil6 {fill:none}
    .fil0 {fill:none}
    .fil1 {fill:#C2C1C1;fill-opacity:0.501961}
    .fil2 {fill:url(#id12)}
    .fil5 {fill:url(#id13)}
    .fil4 {fill:url(#id14)}
    .fil3 {fill:url(#id15)}
   ]]>
  </style>
    <mask id="id0">
  <linearGradient id="id1" gradientUnits="userSpaceOnUse" x1="5.81217e+006" y1="1.84923e+006" x2="4.42278e+006" y2="1.89419e+006">
   <stop offset="0" style="stop-opacity:1; stop-color:white"/>
   <stop offset="0.34902" style="stop-opacity:0.501961; stop-color:white"/>
   <stop offset="1" style="stop-opacity:0; stop-color:white"/>
  </linearGradient>
     <rect style="fill:url(#id1)" x="4.05765e+006" y="987933" width="2.11964e+006" height="1.76756e+006"/>
    </mask>
    <mask id="id2">
  <linearGradient id="id3" gradientUnits="userSpaceOnUse" x1="1.02691e+006" y1="1.86153e+006" x2="2.27009e+006" y2="1.88114e+006">
   <stop offset="0" style="stop-opacity:1; stop-color:white"/>
   <stop offset="0.34902" style="stop-opacity:0.501961; stop-color:white"/>
   <stop offset="1" style="stop-opacity:0; stop-color:white"/>
  </linearGradient>
     <rect style="fill:url(#id3)" x="588679" y="987558" width="2.11964e+006" height="1.76756e+006"/>
    </mask>
    <mask id="id4">
  <linearGradient id="id5" gradientUnits="userSpaceOnUse" x1="550558" y1="1.88663e+006" x2="1.54792e+006" y2="1.85605e+006">
   <stop offset="0" style="stop-opacity:1; stop-color:white"/>
   <stop offset="0.34902" style="stop-opacity:0.501961; stop-color:white"/>
   <stop offset="1" style="stop-opacity:0; stop-color:white"/>
  </linearGradient>
     <rect style="fill:url(#id5)" x="-10579.2" y="987558" width="2.11963e+006" height="1.76756e+006"/>
    </mask>
    <mask id="id6">
  <linearGradient id="id7" gradientUnits="userSpaceOnUse" x1="6.31969e+006" y1="1.85901e+006" x2="5.11439e+006" y2="1.88441e+006">
   <stop offset="0" style="stop-opacity:1; stop-color:white"/>
   <stop offset="0.34902" style="stop-opacity:0.501961; stop-color:white"/>
   <stop offset="1" style="stop-opacity:0; stop-color:white"/>
  </linearGradient>
     <rect style="fill:url(#id7)" x="4.65722e+006" y="987933" width="2.11963e+006" height="1.76756e+006"/>
    </mask>
    <mask id="id8">
  <linearGradient id="id9" gradientUnits="userSpaceOnUse" x1="1.06931e+006" y1="1.91042e+006" x2="1.49126e+006" y2="1.84421e+006">
   <stop offset="0" style="stop-opacity:1; stop-color:white"/>
   <stop offset="1" style="stop-opacity:0; stop-color:white"/>
  </linearGradient>
     <rect style="fill:url(#id9)" x="586050" y="996554" width="1.38847e+006" height="1.76152e+006"/>
    </mask>
    <mask id="id10">
  <linearGradient id="id11" gradientUnits="userSpaceOnUse" x1="1.09466e+006" y1="1.8884e+006" x2="1.39625e+006" y2="1.86622e+006">
   <stop offset="0" style="stop-opacity:1; stop-color:white"/>
   <stop offset="1" style="stop-opacity:0; stop-color:white"/>
  </linearGradient>
     <rect style="fill:url(#id11)" x="550508" y="995846" width="1.38989e+006" height="1.76293e+006"/>
    </mask>
  <linearGradient id="id12" gradientUnits="userSpaceOnUse" x1="4.05942e+006" y1="1.87171e+006" x2="6.17553e+006" y2="1.87171e+006">
   <stop offset="0" style="stop-color:#003333"/>
   <stop offset="0.160784" style="stop-color:#669999"/>
   <stop offset="0.380392" style="stop-color:#FF9966"/>
   <stop offset="0.521569" style="stop-color:#FFCC99"/>
   <stop offset="0.721569" style="stop-color:#FFFF66"/>
   <stop offset="0.8" style="stop-color:#FFFF99"/>
   <stop offset="0.988235" style="stop-color:#336666"/>
   <stop offset="1" style="stop-color:white"/>
  </linearGradient>
  <linearGradient id="id13" gradientUnits="userSpaceOnUse" xlink:href="#id12" x1="4.65899e+006" y1="1.87171e+006" x2="6.7751e+006" y2="1.87171e+006">
  </linearGradient>
  <linearGradient id="id14" gradientUnits="userSpaceOnUse" xlink:href="#id12" x1="2.10729e+006" y1="1.87134e+006" x2="-8816.67" y2="1.87134e+006">
  </linearGradient>
  <linearGradient id="id15" gradientUnits="userSpaceOnUse" xlink:href="#id12" x1="2.70656e+006" y1="1.87134e+006" x2="590442" y2="1.87134e+006">
  </linearGradient>
 </defs>
 <g id="Layer_x0020_1">
  <metadata id="CorelCorpID_0Corel-Layer"/>
  <g id="_112946888">
   <polyline id="_112947464" class="fil0 str0" points="2.25862e+006,2.50201e+006 237975,2.10191e+006 235375,2.08979e+006 8670.83,1.03271e+006 "/>
   <polyline id="_112947488" class="fil0 str0" points="4.52635e+006,2.50126e+006 6.54322e+006,2.10191e+006 6.54582e+006,2.08979e+006 6.77252e+006,1.03271e+006 "/>
   <polyline id="_112948568" class="fil0 str0" points="2.26836e+006,1.25205e+006 235158,1.65463e+006 232592,1.6666e+006 8670.83,2.7107e+006 "/>
   <polyline id="_112948520" class="fil0 str0" points="1.97364e+006,2.74599e+006 235375,1.65362e+006 1.35275e+006,3.09533e+006 8670.83,2.7107e+006 "/>
   <polyline id="_113539592" class="fil0 str0" points="4.52225e+006,1.24134e+006 6.54322e+006,1.64151e+006 6.54582e+006,1.65362e+006 6.77252e+006,2.7107e+006 "/>
   <polyline id="_112949552" class="fil0 str0" points="4.80755e+006,2.74599e+006 6.54452e+006,1.64757e+006 5.42844e+006,3.09533e+006 6.77252e+006,2.7107e+006 "/>
   <polyline id="_113539520" class="fil0 str0" points="3.20984e+006,2.48914e+006 4.6268e+006,2.14335e+006 5.24768e+006,2.49269e+006 5.36156e+006,3.17429e+006 "/>
   <path id="_112947608" class="fil1" d="M238742 1.64827e+006c3833.33,0 6941.67,3037.5 6941.67,6787.5 0,3745.83 -3108.33,6783.33 -6941.67,6783.33 -3837.5,0 -6945.83,-3037.5 -6945.83,-6783.33 0,-3750 3108.33,-6787.5 6945.83,-6787.5z"/>
   <path id="_112947512" class="fil1" d="M238654 2.08008e+006c5354.17,0 9695.83,4245.83 9695.83,9479.17 0,5233.33 -4341.67,9475 -9695.83,9475 -5358.33,0 -9695.83,-4241.67 -9695.83,-9475 0,-5233.33 4337.5,-9479.17 9695.83,-9479.17z"/>
   <path id="_112947632" class="fil1" d="M1.27123e+006 2.29877e+006c4366.67,0 7908.33,3462.5 7908.33,7729.17 0,4270.83 -3541.67,7733.33 -7908.33,7733.33 -4370.83,0 -7912.5,-3462.5 -7912.5,-7733.33 0,-4266.67 3541.67,-7729.17 7912.5,-7729.17z"/>
   <path id="_112947656" class="fil1" d="M645333 2.17429e+006c4670.83,0 8458.33,3704.17 8458.33,8270.83 0,4566.67 -3787.5,8266.67 -8458.33,8266.67 -4675,0 -8462.5,-3700 -8462.5,-8266.67 0,-4566.67 3787.5,-8270.83 8462.5,-8270.83z"/>
   <path id="_112947680" class="fil1" d="M462708 1.94017e+006c3820.83,0 6920.83,3029.17 6920.83,6766.67 0,3737.5 -3100,6766.67 -6920.83,6766.67 -3825,0 -6925,-3029.17 -6925,-6766.67 0,-3737.5 3100,-6766.67 6925,-6766.67z"/>
   <path id="_112947704" class="fil1" d="M404404 1.86328e+006c4762.5,0 8620.83,3775 8620.83,8425 0,4654.17 -3858.33,8425 -8620.83,8425 -4762.5,0 -8620.83,-3770.83 -8620.83,-8425 0,-4650 3858.33,-8425 8620.83,-8425z"/>
   <path id="_112947728" class="fil1" d="M462708 1.79042e+006c3420.83,0 6195.83,2712.5 6195.83,6062.5 0,3345.83 -2775,6058.33 -6195.83,6058.33 -3425,0 -6200,-2712.5 -6200,-6058.33 0,-3350 2775,-6062.5 6200,-6062.5z"/>
   <path id="_112947752" class="fil1" d="M582417 1.86646e+006c2962.5,0 5366.67,2350 5366.67,5245.83 0,2900 -2404.17,5245.83 -5366.67,5245.83 -2966.67,0 -5370.83,-2345.83 -5370.83,-5245.83 0,-2895.83 2404.17,-5245.83 5370.83,-5245.83z"/>
   <path id="_112949096" class="fil1" d="M633825 1.56765e+006c4545.83,0 8233.33,3604.17 8233.33,8050 0,4445.83 -3687.5,8050 -8233.33,8050 -4550,0 -8237.5,-3604.17 -8237.5,-8050 0,-4445.83 3687.5,-8050 8237.5,-8050z"/>
   <path id="_112949048" class="fil1" d="M1.24482e+006 1.44655e+006c3833.33,0 6941.67,3041.67 6941.67,6787.5 0,3750 -3108.33,6787.5 -6941.67,6787.5 -3837.5,0 -6945.83,-3037.5 -6945.83,-6787.5 0,-3745.83 3108.33,-6787.5 6945.83,-6787.5z"/>
   <path id="_112949000" class="fil1" d="M1.97292e+006 991496c3833.33,0 6941.67,3037.5 6941.67,6787.5 0,3745.83 -3108.33,6783.33 -6941.67,6783.33 -3837.5,0 -6945.83,-3037.5 -6945.83,-6783.33 0,-3750 3108.33,-6787.5 6945.83,-6787.5z"/>
   <path id="_113540552" class="fil1" d="M5.50526e+006 2.30127e+006c4366.67,0 7908.33,3462.5 7908.33,7733.33 0,4266.67 -3541.67,7729.17 -7908.33,7729.17 -4370.83,0 -7912.5,-3462.5 -7912.5,-7729.17 0,-4270.83 3541.67,-7733.33 7912.5,-7733.33z"/>
   <path id="_113537696" class="fil1" d="M6.53917e+006 2.0916e+006c4366.67,0 7908.33,3462.5 7908.33,7729.17 0,4270.83 -3541.67,7733.33 -7908.33,7733.33 -4370.83,0 -7912.5,-3462.5 -7912.5,-7733.33 0,-4266.67 3541.67,-7729.17 7912.5,-7729.17z"/>
   <path id="_113540264" class="fil1" d="M6.5926e+006 1.86397e+006c4366.67,0 7908.33,3462.5 7908.33,7729.17 0,4270.83 -3541.67,7733.33 -7908.33,7733.33 -4370.83,0 -7912.5,-3462.5 -7912.5,-7733.33 0,-4266.67 3541.67,-7729.17 7912.5,-7729.17z"/>
   <path id="_113539448" class="fil1" d="M6.36921e+006 1.86724e+006c4366.67,0 7908.33,3462.5 7908.33,7729.17 0,4270.83 -3541.67,7733.33 -7908.33,7733.33 -4370.83,0 -7912.5,-3462.5 -7912.5,-7733.33 0,-4266.67 3541.67,-7729.17 7912.5,-7729.17z"/>
   <path id="_113539160" class="fil1" d="M6.30912e+006 1.9452e+006c4366.67,0 7908.33,3462.5 7908.33,7729.17 0,4270.83 -3541.67,7733.33 -7908.33,7733.33 -4370.83,0 -7912.5,-3462.5 -7912.5,-7733.33 0,-4266.67 3541.67,-7729.17 7912.5,-7729.17z"/>
   <path id="_112948856" class="fil1" d="M6.18345e+006 1.86523e+006c4366.67,0 7908.33,3462.5 7908.33,7729.17 0,4270.83 -3541.67,7733.33 -7908.33,7733.33 -4370.83,0 -7912.5,-3462.5 -7912.5,-7733.33 0,-4266.67 3541.67,-7729.17 7912.5,-7729.17z"/>
   <path id="_112948952" class="fil1" d="M6.30903e+006 1.78876e+006c4366.67,0 7908.33,3462.5 7908.33,7733.33 0,4266.67 -3541.67,7729.17 -7908.33,7729.17 -4370.83,0 -7912.5,-3462.5 -7912.5,-7729.17 0,-4270.83 3541.67,-7733.33 7912.5,-7733.33z"/>
   <path id="_112948808" class="fil1" d="M6.54452e+006 1.63984e+006c4366.67,0 7908.33,3462.5 7908.33,7729.17 0,4270.83 -3541.67,7733.33 -7908.33,7733.33 -4370.83,0 -7912.5,-3462.5 -7912.5,-7733.33 0,-4266.67 3541.67,-7729.17 7912.5,-7729.17z"/>
   <path id="_112948760" class="fil1" d="M5.49289e+006 1.42581e+006c4366.67,0 7908.33,3458.33 7908.33,7729.17 0,4266.67 -3541.67,7729.17 -7908.33,7729.17 -4370.83,0 -7912.5,-3462.5 -7912.5,-7729.17 0,-4270.83 3541.67,-7729.17 7912.5,-7729.17z"/>
   <path id="_112948712" class="fil1" d="M4.5289e+006 1.2322e+006c4366.67,0 7908.33,3462.5 7908.33,7733.33 0,4266.67 -3541.67,7729.17 -7908.33,7729.17 -4370.83,0 -7912.5,-3462.5 -7912.5,-7729.17 0,-4270.83 3541.67,-7733.33 7912.5,-7733.33z"/>
   <path id="_112948664" class="fil1" d="M4.80756e+006 989696c4366.67,0 7908.33,3462.5 7908.33,7733.33 0,4266.67 -3541.67,7729.17 -7908.33,7729.17 -4370.83,0 -7912.5,-3462.5 -7912.5,-7729.17 0,-4270.83 3541.67,-7733.33 7912.5,-7733.33z"/>
   <path id="_112948616" class="fil1" d="M4.52775e+006 2.49325e+006c4366.67,0 7908.33,3462.5 7908.33,7733.33 0,4266.67 -3541.67,7729.17 -7908.33,7729.17 -4370.83,0 -7912.5,-3462.5 -7912.5,-7729.17 0,-4270.83 3541.67,-7733.33 7912.5,-7733.33z"/>
   <path id="_113544560" class="fil1" d="M2.25486e+006 2.49353e+006c4366.67,0 7908.33,3462.5 7908.33,7733.33 0,4266.67 -3541.67,7729.17 -7908.33,7729.17 -4370.83,0 -7912.5,-3462.5 -7912.5,-7729.17 0,-4270.83 3541.67,-7733.33 7912.5,-7733.33z"/>
   <path id="_112947944" class="fil1" d="M2.26548e+006 1.24462e+006c3833.33,0 6941.67,3037.5 6941.67,6783.33 0,3750 -3108.33,6787.5 -6941.67,6787.5 -3837.5,0 -6945.83,-3037.5 -6945.83,-6787.5 0,-3745.83 3108.33,-6783.33 6945.83,-6783.33z"/>
   <polygon id="_112948472" class="fil2" style="mask:url(#id0)" points="4.05942e+006,1.6485e+006 4.80755e+006,989696 6.17553e+006,1.87296e+006 4.80765e+006,2.75373e+006 4.05942e+006,2.09491e+006 "/>
   <polygon id="_112949144" class="fil3" style="mask:url(#id2)" points="2.70655e+006,1.64812e+006 1.95842e+006,989321 590442,1.87259e+006 1.95832e+006,2.75335e+006 2.70655e+006,2.09454e+006 "/>
   <polygon id="_112948424" class="fil4" style="mask:url(#id4)" points="2.10729e+006,1.64812e+006 1.35916e+006,989321 -8820.83,1.87259e+006 1.35906e+006,2.75335e+006 2.10729e+006,2.09454e+006 "/>
   <polygon id="_113537336" class="fil5" style="mask:url(#id6)" points="4.65899e+006,1.6485e+006 5.40712e+006,989696 6.7751e+006,1.87296e+006 5.40722e+006,2.75373e+006 4.65899e+006,2.09491e+006 "/>
   <polyline id="_113540816" class="fil6 str1" style="mask:url(#id8)" points="1.97364e+006,997429 586929,1.86887e+006 1.97364e+006,2.75719e+006 "/>
   <polyline id="_113541464" class="fil6 str2" style="mask:url(#id10)" points="1.93881e+006,997429 552096,1.86887e+006 1.93881e+006,2.75719e+006 "/>
  </g>
  <g id="_112948880">
   <path id="_113541680" class="fil1" d="M1.97365e+006 2.73478e+006c6325,0 11458.3,5016.67 11458.3,11204.2 0,6187.5 -5133.33,11200 -11458.3,11200 -6337.5,0 -11466.7,-5012.5 -11466.7,-11200 0,-6187.5 5129.17,-11204.2 11466.7,-11204.2z"/>
   <path id="_112948280" class="fil1" d="M1.35281e+006 3.08757e+006c4366.67,0 7908.33,3462.5 7908.33,7733.33 0,4266.67 -3541.67,7729.17 -7908.33,7729.17 -4370.83,0 -7912.5,-3462.5 -7912.5,-7729.17 0,-4270.83 3541.67,-7733.33 7912.5,-7733.33z"/>
   <path id="_112948376" class="fil1" d="M4.80765e+006 2.73827e+006c4366.67,0 7908.33,3458.33 7908.33,7729.17 0,4266.67 -3541.67,7729.17 -7908.33,7729.17 -4370.83,0 -7912.5,-3462.5 -7912.5,-7729.17 0,-4270.83 3541.67,-7729.17 7912.5,-7729.17z"/>
   <path id="_112948232" class="fil1" d="M5.42845e+006 3.0876e+006c4366.67,0 7908.33,3462.5 7908.33,7733.33 0,4266.67 -3541.67,7729.17 -7908.33,7729.17 -4370.83,0 -7912.5,-3462.5 -7912.5,-7729.17 0,-4270.83 3541.67,-7733.33 7912.5,-7733.33z"/>
   <path id="_112948184" class="fil1" d="M3.3906e+006 3.08405e+006c4366.67,0 7908.33,3462.5 7908.33,7729.17 0,4270.83 -3541.67,7733.33 -7908.33,7733.33 -4370.83,0 -7912.5,-3462.5 -7912.5,-7733.33 0,-4266.67 3541.67,-7729.17 7912.5,-7729.17z"/>
  </g>
  <g id="_113537984">
   <line id="_113537000" class="fil6 str3" x1="3.38314e+006" y1="2.21222e+006" x2="3.38314e+006" y2= "2.36395e+006" />
   <polyline id="_112947824" class="fil6 str3" points="3.30729e+006,2.38337e+006 3.30729e+006,2.36395e+006 3.45898e+006,2.36395e+006 3.45899e+006,2.38337e+006 "/>
  </g>
 </g>
</svg>
