<?xml version="1.0" encoding="UTF-8"?>
<!DOCTYPE svg PUBLIC "-//W3C//DTD SVG 1.1//EN" "http://www.w3.org/Graphics/SVG/1.1/DTD/svg11.dtd">
<!-- Creator: CorelDRAW -->
<svg xmlns="http://www.w3.org/2000/svg" xml:space="preserve" width="6.77333E+006px" height="3.61244E+007px" style="shape-rendering:geometricPrecision; text-rendering:geometricPrecision; image-rendering:optimizeQuality; fill-rule:evenodd; clip-rule:evenodd"
viewBox="0 0 6.77333e+006 3.39372e+007"
 xmlns:xlink="http://www.w3.org/1999/xlink">
 <defs>
  <style type="text/css">
   <![CDATA[
    .str1 {stroke:white;stroke-width:3529.17}
    .str0 {stroke:white;stroke-width:7350}
    .str2 {stroke:#C2C1C1;stroke-width:17637.5}
    .fil0 {fill:none}
    .fil2 {fill:url(#id18)}
    .fil1 {fill:url(#id19)}
   ]]>
  </style>
    <mask id="id0">
  <linearGradient id="id1" gradientUnits="userSpaceOnUse" x1="2.8856e+006" y1="9.2089e+006" x2="2.77473e+006" y2="9.28885e+006">
   <stop offset="0" style="stop-opacity:1; stop-color:white"/>
   <stop offset="1" style="stop-opacity:0; stop-color:white"/>
  </linearGradient>
     <rect style="fill:url(#id1)" x="2.71624e+006" y="9.22625e+006" width="227837" height="45241.7"/>
    </mask>
    <mask id="id2">
  <linearGradient id="id3" gradientUnits="userSpaceOnUse" x1="428854" y1="9.51453e+006" x2="2.48179e+006" y2="9.45699e+006">
   <stop offset="0" style="stop-opacity:1; stop-color:white"/>
   <stop offset="0.439216" style="stop-opacity:0.501961; stop-color:white"/>
   <stop offset="1" style="stop-opacity:0; stop-color:white"/>
  </linearGradient>
     <rect style="fill:url(#id3)" x="186975" y="8.85939e+006" width="2.53669e+006" height="1.25274e+006"/>
    </mask>
    <mask id="id4">
  <linearGradient id="id5" gradientUnits="userSpaceOnUse" x1="298604" y1="9.79572e+006" x2="1.8027e+006" y2="9.79572e+006">
   <stop offset="0" style="stop-opacity:1; stop-color:white"/>
   <stop offset="1" style="stop-opacity:0; stop-color:white"/>
  </linearGradient>
     <rect style="fill:url(#id5)" x="296842" y="9.64217e+006" width="1.50762e+006" height="307108"/>
    </mask>
    <mask id="id6">
  <radialGradient id="id7" gradientUnits="userSpaceOnUse" cx="226404" cy="9.4781e+006" r="24066.7" fx="226404" fy="9.4781e+006">
   <stop offset="0" style="stop-opacity:0; stop-color:white"/>
   <stop offset="1" style="stop-opacity:1; stop-color:white"/>
  </radialGradient>
     <rect style="fill:url(#id7)" x="248708" y="9.31059e+006" width="51658.3" height="335100"/>
    </mask>
    <mask id="id8">
  <radialGradient id="id9" gradientUnits="userSpaceOnUse" cx="240125" cy="9.47417e+006" r="24066.7" fx="240125" fy="9.47417e+006">
   <stop offset="0" style="stop-opacity:0; stop-color:white"/>
   <stop offset="1" style="stop-opacity:0.498039; stop-color:white"/>
  </radialGradient>
     <rect style="fill:url(#id9)" x="255375" y="9.29961e+006" width="66600" height="356067"/>
    </mask>
    <mask id="id10">
  <linearGradient id="id11" gradientUnits="userSpaceOnUse" x1="298604" y1="9.16056e+006" x2="1.8027e+006" y2="9.16056e+006">
   <stop offset="0" style="stop-opacity:1; stop-color:white"/>
   <stop offset="1" style="stop-opacity:0; stop-color:white"/>
  </linearGradient>
     <rect style="fill:url(#id11)" x="296842" y="9.007e+006" width="1.50762e+006" height="307112"/>
    </mask>
    <mask id="id12">
  <linearGradient id="id13" gradientUnits="userSpaceOnUse" x1="2.24495e+006" y1="8.97131e+006" x2="2.73017e+006" y2="9.16831e+006">
   <stop offset="0" style="stop-opacity:1; stop-color:white"/>
   <stop offset="1" style="stop-opacity:0; stop-color:white"/>
  </linearGradient>
     <rect style="fill:url(#id13)" x="2.25068e+006" y="8.86711e+006" width="473750" height="405404"/>
    </mask>
    <mask id="id14">
  <linearGradient id="id15" gradientUnits="userSpaceOnUse" x1="2.14285e+006" y1="8.7414e+006" x2="349479" y2="9.3899e+006">
   <stop offset="0" style="stop-opacity:1; stop-color:white"/>
   <stop offset="1" style="stop-opacity:0; stop-color:white"/>
  </linearGradient>
     <rect style="fill:url(#id15)" x="234300" y="8.86711e+006" width="2.02373e+006" height="397079"/>
    </mask>
   <mask id="id16">
  <linearGradient id="id17" gradientUnits="userSpaceOnUse" x1="428850" y1="9.51453e+006" x2="2.48179e+006" y2="9.45699e+006">
   <stop offset="0" style="stop-opacity:1; stop-color:white"/>
   <stop offset="0.439216" style="stop-opacity:0.501961; stop-color:white"/>
   <stop offset="1" style="stop-opacity:0; stop-color:white"/>
  </linearGradient>
    <rect style="fill:url(#id17)" x="186971" y="8.85939e+006" width="2.5367e+006" height="1.25274e+006"/>
   </mask>
  <linearGradient id="id18" gradientUnits="userSpaceOnUse" x1="188733" y1="9.48576e+006" x2="2.72191e+006" y2="9.48576e+006">
   <stop offset="0" style="stop-color:#FF9966"/>
   <stop offset="0.368627" style="stop-color:#FFCC00"/>
   <stop offset="0.760784" style="stop-color:#669966"/>
   <stop offset="0.988235" style="stop-color:#003333"/>
   <stop offset="1" style="stop-color:white"/>
  </linearGradient>
  <linearGradient id="id19" gradientUnits="userSpaceOnUse" xlink:href="#id18" x1="188737" y1="9.48576e+006" x2="2.7219e+006" y2="9.48576e+006">
  </linearGradient>
 </defs>
 <g id="Layer_x0020_1">
  <metadata id="CorelCorpID_0Corel-Layer"/>
  <g id="_113203392">
   <line id="_113539784" class="fil0 str0" style="mask:url(#id0)" x1="2.9404e+006" y1="9.22993e+006" x2="2.71992e+006" y2= "9.26782e+006" />
   <polygon id="_113536976" class="fil1" style="mask:url(#id2)" points="244071,9.26492e+006 188733,9.4907e+006 235504,9.70879e+006 2.26849e+006,1.01104e+007 2.7219e+006,9.71391e+006 2.7219e+006,9.2675e+006 2.24707e+006,8.86115e+006 "/>
   <line id="_113540768" class="fil0 str1" style="mask:url(#id4)" x1="298604" y1="9.64393e+006" x2="1.8027e+006" y2= "9.94752e+006" />
   <polyline id="_113541656" class="fil0 str1" style="mask:url(#id6)" points="298604,9.31235e+006 250471,9.48161e+006 298604,9.64393e+006 "/>
   <polyline id="_113544440" class="fil0 str2" style="mask:url(#id8)" points="312325,9.30843e+006 264192,9.47768e+006 313158,9.64686e+006 "/>
   <line id="_113544392" class="fil0 str1" style="mask:url(#id10)" x1="298604" y1="9.31235e+006" x2="1.8027e+006" y2= "9.00877e+006" />
   <line id="_113544344" class="fil0 str0" style="mask:url(#id12)" x1="2.72076e+006" y1="9.26884e+006" x2="2.25436e+006" y2= "8.87078e+006" />
   <line id="_113544296" class="fil0 str0" style="mask:url(#id14)" x1="237975" y1="9.26051e+006" x2="2.25436e+006" y2= "8.87078e+006" />
  </g>
  <polygon class="fil2" style="mask:url(#id16)" points="244071,9.26492e+006 188733,9.4907e+006 235504,9.70879e+006 2.26849e+006,1.01104e+007 2.7219e+006,9.71391e+006 2.7219e+006,9.2675e+006 2.24707e+006,8.86115e+006 "/>
 </g>
</svg>
