<?xml version="1.0" encoding="UTF-8"?>
<!DOCTYPE svg PUBLIC "-//W3C//DTD SVG 1.1//EN" "http://www.w3.org/Graphics/SVG/1.1/DTD/svg11.dtd">
<!-- Creator: CorelDRAW -->
<svg xmlns="http://www.w3.org/2000/svg" xml:space="preserve" width="6.77333E+006px" height="3.61244E+007px" style="shape-rendering:geometricPrecision; text-rendering:geometricPrecision; image-rendering:optimizeQuality; fill-rule:evenodd; clip-rule:evenodd"
viewBox="0 0 6.77333e+006 3.39372e+007"
 xmlns:xlink="http://www.w3.org/1999/xlink">
 <defs>
  <style type="text/css">
   <![CDATA[
    .str1 {stroke:white;stroke-width:3529.17}
    .str0 {stroke:white;stroke-width:7350}
    .fil0 {fill:none}
    .fil7 {fill:url(#id18)}
    .fil8 {fill:url(#id19)}
    .fil5 {fill:url(#id20)}
    .fil6 {fill:url(#id21)}
    .fil4 {fill:url(#id22)}
    .fil2 {fill:url(#id23)}
    .fil3 {fill:url(#id24)}
    .fil1 {fill:url(#id25)}
   ]]>
  </style>
   <mask id="id0">
  <linearGradient id="id1" gradientUnits="userSpaceOnUse" x1="1.13957e+006" y1="2.6507e+007" x2="1.72043e+006" y2="2.60335e+007">
   <stop offset="0" style="stop-opacity:1; stop-color:white"/>
   <stop offset="1" style="stop-opacity:0; stop-color:white"/>
  </linearGradient>
    <rect style="fill:url(#id1)" x="651821" y="2.61619e+007" width="1.55636e+006" height="216717"/>
   </mask>
   <mask id="id2">
  <linearGradient id="id3" gradientUnits="userSpaceOnUse" x1="2.5139e+006" y1="2.6507e+007" x2="1.93304e+006" y2="2.60335e+007">
   <stop offset="0" style="stop-opacity:1; stop-color:white"/>
   <stop offset="1" style="stop-opacity:0; stop-color:white"/>
  </linearGradient>
    <rect style="fill:url(#id3)" x="1.44529e+006" y="2.61619e+007" width="1.55636e+006" height="216717"/>
   </mask>
   <mask id="id4">
  <linearGradient id="id5" gradientUnits="userSpaceOnUse" x1="1.80314e+006" y1="2.56156e+007" x2="1.80314e+006" y2="2.56658e+007">
   <stop offset="0" style="stop-opacity:1; stop-color:white"/>
   <stop offset="1" style="stop-opacity:0; stop-color:white"/>
  </linearGradient>
    <rect style="fill:url(#id5)" x="1.74272e+006" y="2.56138e+007" width="120821" height="53808.3"/>
   </mask>
   <mask id="id6">
  <linearGradient id="id7" gradientUnits="userSpaceOnUse" x1="1.93302e+006" y1="2.45931e+007" x2="2.23916e+006" y2="2.54749e+007">
   <stop offset="0" style="stop-opacity:1; stop-color:white"/>
   <stop offset="1" style="stop-opacity:0; stop-color:white"/>
  </linearGradient>
    <rect style="fill:url(#id7)" x="1.48742e+006" y="2.42514e+007" width="1.19734e+006" height="1.56518e+006"/>
   </mask>
   <mask id="id8">
  <linearGradient id="id9" gradientUnits="userSpaceOnUse" x1="1.69156e+006" y1="2.45987e+007" x2="1.38935e+006" y2="2.54692e+007">
   <stop offset="0" style="stop-opacity:1; stop-color:white"/>
   <stop offset="1" style="stop-opacity:0; stop-color:white"/>
  </linearGradient>
    <rect style="fill:url(#id9)" x="985404" y="2.42865e+007" width="1.1101e+006" height="1.49504e+006"/>
   </mask>
   <mask id="id10">
  <linearGradient id="id11" gradientUnits="userSpaceOnUse" x1="1.69178e+006" y1="2.45981e+007" x2="1.38913e+006" y2="2.54698e+007">
   <stop offset="0" style="stop-opacity:1; stop-color:white"/>
   <stop offset="1" style="stop-opacity:0; stop-color:white"/>
  </linearGradient>
    <rect style="fill:url(#id11)" x="629746" y="2.44433e+007" width="1.82142e+006" height="1.18126e+006"/>
   </mask>
   <mask id="id12">
  <linearGradient id="id13" gradientUnits="userSpaceOnUse" x1="1.93767e+006" y1="2.45981e+007" x2="2.24032e+006" y2="2.54698e+007">
   <stop offset="0" style="stop-opacity:1; stop-color:white"/>
   <stop offset="1" style="stop-opacity:0; stop-color:white"/>
  </linearGradient>
    <rect style="fill:url(#id13)" x="1.17828e+006" y="2.44433e+007" width="1.82142e+006" height="1.18126e+006"/>
   </mask>
   <mask id="id14">
  <radialGradient id="id15" gradientUnits="userSpaceOnUse" cx="1.10176e+006" cy="2.57567e+007" r="68395.8" fx="1.10176e+006" fy="2.57567e+007">
   <stop offset="0" style="stop-opacity:0; stop-color:white"/>
   <stop offset="1" style="stop-opacity:0.247059; stop-color:white"/>
  </radialGradient>
    <rect style="fill:url(#id15)" x="936954" y="2.56238e+007" width="895050" height="2.09336e+006"/>
   </mask>
   <mask id="id16">
  <radialGradient id="id17" gradientUnits="userSpaceOnUse" cx="1.98666e+006" cy="2.5761e+007" r="68395.8" fx="1.98666e+006" fy="2.5761e+007">
   <stop offset="0" style="stop-opacity:0; stop-color:white"/>
   <stop offset="1" style="stop-opacity:0.247059; stop-color:white"/>
  </radialGradient>
    <rect style="fill:url(#id17)" x="1.82186e+006" y="2.56281e+007" width="895050" height="2.08476e+006"/>
   </mask>
  <linearGradient id="id18" gradientUnits="userSpaceOnUse" x1="938717" y1="2.66705e+007" x2="1.83024e+006" y2="2.66705e+007">
   <stop offset="0" style="stop-color:#003333"/>
   <stop offset="0.109804" style="stop-color:#669999"/>
   <stop offset="0.309804" style="stop-color:#FFFF66"/>
   <stop offset="0.478431" style="stop-color:#FFCC99"/>
   <stop offset="0.619608" style="stop-color:#FF9966"/>
   <stop offset="0.729412" style="stop-color:#99CCCC"/>
   <stop offset="0.988235" style="stop-color:#336666"/>
   <stop offset="1" style="stop-color:white"/>
  </linearGradient>
  <linearGradient id="id19" gradientUnits="userSpaceOnUse" xlink:href="#id18" x1="2.71515e+006" y1="2.66705e+007" x2="1.82362e+006" y2="2.66705e+007">
  </linearGradient>
  <linearGradient id="id20" gradientUnits="userSpaceOnUse" xlink:href="#id18" x1="1.54045e+006" y1="2.54815e+007" x2="1.54045e+006" y2="2.45864e+007">
  </linearGradient>
  <linearGradient id="id21" gradientUnits="userSpaceOnUse" xlink:href="#id18" x1="2.08899e+006" y1="2.54815e+007" x2="2.08899e+006" y2="2.45864e+007">
  </linearGradient>
  <linearGradient id="id22" gradientUnits="userSpaceOnUse" xlink:href="#id18" x1="1.54045e+006" y1="2.54814e+007" x2="1.54045e+006" y2="2.45865e+007">
  </linearGradient>
  <linearGradient id="id23" gradientUnits="userSpaceOnUse" xlink:href="#id18" x1="1.77315e+006" y1="2.62703e+007" x2="2.67379e+006" y2="2.62703e+007">
  </linearGradient>
  <linearGradient id="id24" gradientUnits="userSpaceOnUse" xlink:href="#id18" x1="2.08609e+006" y1="2.54869e+007" x2="2.08609e+006" y2="2.45811e+007">
  </linearGradient>
  <linearGradient id="id25" gradientUnits="userSpaceOnUse" xlink:href="#id18" x1="1.88032e+006" y1="2.62703e+007" x2="979679" y2="2.62703e+007">
  </linearGradient>
 </defs>
 <g id="Layer_x0020_1">
  <metadata id="CorelCorpID_0Corel-Layer"/>
  <polygon class="fil0 str0" points="1.57407e+006,2.63161e+007 1.4139e+006,2.58742e+007 1.80602e+006,2.55648e+007 2.22021e+006,2.58742e+007 2.0711e+006,2.63189e+007 "/>
  <polygon class="fil0 str0" points="1.81153e+006,2.46893e+007 1.19852e+006,2.56256e+007 1.4139e+006,2.58742e+007 1.80926e+006,2.55633e+007 "/>
  <polygon class="fil0 str0" points="2.4494e+006,2.56228e+007 1.81153e+006,2.46893e+007 1.80665e+006,2.55653e+007 2.22021e+006,2.58742e+007 "/>
  <polygon class="fil0 str0" points="1.19852e+006,2.56256e+007 1.19577e+006,2.58742e+007 1.44704e+006,2.63769e+007 1.57407e+006,2.63161e+007 1.4139e+006,2.58742e+007 "/>
  <polygon class="fil0 str0" points="2.4494e+006,2.56228e+007 2.45768e+006,2.58742e+007 2.20641e+006,2.63769e+007 2.07939e+006,2.63161e+007 2.22021e+006,2.58742e+007 "/>
  <polygon class="fil0 str0" points="1.44704e+006,2.63769e+007 2.20641e+006,2.63769e+007 2.07939e+006,2.63161e+007 1.57407e+006,2.63161e+007 "/>
  <polygon class="fil1" style="mask:url(#id0)" points="1.44705e+006,2.63769e+007 2.20642e+006,2.63769e+007 2.07939e+006,2.63161e+007 1.57406e+006,2.63161e+007 "/>
  <polygon class="fil2" style="mask:url(#id2)" points="2.20642e+006,2.63769e+007 1.44705e+006,2.63769e+007 1.57408e+006,2.63161e+007 2.0794e+006,2.63161e+007 "/>
  <polyline class="fil0 str1" style="mask:url(#id4)" points="1.74449e+006,2.56658e+007 1.80534e+006,2.56156e+007 1.86178e+006,2.56658e+007 "/>
  <polygon class="fil3" style="mask:url(#id6)" points="1.48918e+006,2.58148e+007 1.68832e+006,2.54376e+007 1.8115e+006,2.46963e+007 "/>
  <polygon class="fil4" style="mask:url(#id8)" points="2.09374e+006,2.57797e+007 1.93822e+006,2.54376e+007 1.81504e+006,2.46963e+007 "/>
  <polygon class="fil5" style="mask:url(#id10)" points="2.4494e+006,2.56228e+007 2.3191e+006,2.55394e+007 1.81504e+006,2.46963e+007 "/>
  <polygon class="fil6" style="mask:url(#id12)" points="1.18004e+006,2.56228e+007 1.31034e+006,2.55394e+007 1.8144e+006,2.46963e+007 "/>
  <polygon class="fil7" style="mask:url(#id14)" points="1.19853e+006,2.56256e+007 1.20042e+006,2.58835e+007 1.44705e+006,2.63769e+007 1.57408e+006,2.63161e+007 1.4139e+006,2.58742e+007 "/>
  <polygon class="fil8" style="mask:url(#id16)" points="2.44295e+006,2.56299e+007 2.45325e+006,2.58788e+007 2.20397e+006,2.63733e+007 2.08404e+006,2.63142e+007 2.2245e+006,2.58745e+007 "/>
 </g>
</svg>
