<?xml version="1.0" encoding="UTF-8"?>
<!DOCTYPE svg PUBLIC "-//W3C//DTD SVG 1.1//EN" "http://www.w3.org/Graphics/SVG/1.1/DTD/svg11.dtd">
<!-- Creator: CorelDRAW -->
<svg xmlns="http://www.w3.org/2000/svg" xml:space="preserve" width="6.77333E+006px" height="3.61244E+007px" style="shape-rendering:geometricPrecision; text-rendering:geometricPrecision; image-rendering:optimizeQuality; fill-rule:evenodd; clip-rule:evenodd"
viewBox="0 0 6.77333e+006 3.39372e+007"
 xmlns:xlink="http://www.w3.org/1999/xlink">
 <defs>
  <style type="text/css">
   <![CDATA[
    .str0 {stroke:white;stroke-width:7350}
    .fil0 {fill:none}
   ]]>
  </style>
   <mask id="id0">
  <linearGradient id="id1" gradientUnits="userSpaceOnUse" x1="2.86271e+006" y1="2.67709e+007" x2="2.75683e+006" y2="2.63657e+007">
   <stop offset="0" style="stop-opacity:1; stop-color:white"/>
   <stop offset="1" style="stop-opacity:0; stop-color:white"/>
  </linearGradient>
    <rect style="fill:url(#id1)" x="2.20274e+006" y="2.63732e+007" width="1.21406e+006" height="390212"/>
   </mask>
   <mask id="id2">
  <linearGradient id="id3" gradientUnits="userSpaceOnUse" x1="4.02657e+006" y1="2.72595e+007" x2="4.94457e+006" y2="2.83348e+007">
   <stop offset="0" style="stop-opacity:1; stop-color:white"/>
   <stop offset="1" style="stop-opacity:0; stop-color:white"/>
  </linearGradient>
    <rect style="fill:url(#id3)" x="3.90687e+006" y="2.67852e+007" width="1.1574e+006" height="2.024e+006"/>
   </mask>
 </defs>
 <g id="Layer_x0020_1">
  <metadata id="CorelCorpID_0Corel-Layer"/>
  <polyline class="fil0 str0" style="mask:url(#id0)" points="2.20641e+006,2.63769e+007 2.72177e+006,2.67212e+007 3.41312e+006,2.67597e+007 "/>
  <line class="fil0 str0" x1="3.46174e+006" y1="2.67638e+007" x2="3.91054e+006" y2= "2.67888e+007" />
  <line class="fil0 str0" style="mask:url(#id2)" x1="3.91054e+006" y1="2.67888e+007" x2="5.0606e+006" y2= "2.88055e+007" />
 </g>
</svg>
