<?xml version="1.0" encoding="UTF-8"?>
<!DOCTYPE svg PUBLIC "-//W3C//DTD SVG 1.1//EN" "http://www.w3.org/Graphics/SVG/1.1/DTD/svg11.dtd">
<!-- Creator: CorelDRAW -->
<svg xmlns="http://www.w3.org/2000/svg" xml:space="preserve" width="6.77333E+006px" height="3.61244E+007px" style="shape-rendering:geometricPrecision; text-rendering:geometricPrecision; image-rendering:optimizeQuality; fill-rule:evenodd; clip-rule:evenodd"
viewBox="0 0 6.77333e+006 3.39372e+007"
 xmlns:xlink="http://www.w3.org/1999/xlink">
 <defs>
  <style type="text/css">
   <![CDATA[
    .str1 {stroke:#72706F;stroke-width:7054.17}
    .str0 {stroke:white;stroke-width:7054.17}
    .fil5 {fill:none}
    .fil0 {fill:#C2C1C1;fill-opacity:0.501961}
    .fil1 {fill:url(#id14)}
    .fil3 {fill:url(#id15)}
    .fil2 {fill:url(#id16)}
    .fil4 {fill:url(#id17)}
   ]]>
  </style>
   <mask id="id0">
  <linearGradient id="id1" gradientUnits="userSpaceOnUse" x1="2.14559e+006" y1="4.6384e+006" x2="2.69324e+006" y2="4.29209e+006">
   <stop offset="0" style="stop-opacity:1; stop-color:white"/>
   <stop offset="1" style="stop-opacity:0; stop-color:white"/>
  </linearGradient>
    <rect style="fill:url(#id1)" x="1.97188e+006" y="4.12329e+006" width="895075" height="683908"/>
   </mask>
   <mask id="id2">
  <linearGradient id="id3" gradientUnits="userSpaceOnUse" x1="4.63288e+006" y1="4.6384e+006" x2="4.08523e+006" y2="4.29209e+006">
   <stop offset="0" style="stop-opacity:1; stop-color:white"/>
   <stop offset="1" style="stop-opacity:0; stop-color:white"/>
  </linearGradient>
    <rect style="fill:url(#id3)" x="3.91152e+006" y="4.12329e+006" width="895075" height="683908"/>
   </mask>
   <mask id="id4">
  <linearGradient id="id5" gradientUnits="userSpaceOnUse" x1="2.1456e+006" y1="2.91656e+006" x2="2.69325e+006" y2="3.26287e+006">
   <stop offset="0" style="stop-opacity:1; stop-color:white"/>
   <stop offset="1" style="stop-opacity:0; stop-color:white"/>
  </linearGradient>
    <rect style="fill:url(#id5)" x="1.97189e+006" y="2.74776e+006" width="895075" height="683908"/>
   </mask>
   <mask id="id6">
  <linearGradient id="id7" gradientUnits="userSpaceOnUse" x1="4.63288e+006" y1="2.91656e+006" x2="4.08523e+006" y2="3.26287e+006">
   <stop offset="0" style="stop-opacity:1; stop-color:white"/>
   <stop offset="1" style="stop-opacity:0; stop-color:white"/>
  </linearGradient>
    <rect style="fill:url(#id7)" x="3.91152e+006" y="2.74776e+006" width="895075" height="683908"/>
   </mask>
   <mask id="id8">
  <linearGradient id="id9" gradientUnits="userSpaceOnUse" x1="2.7082e+006" y1="3.76305e+006" x2="2.0887e+006" y2="2.77043e+006">
   <stop offset="0" style="stop-opacity:1; stop-color:white"/>
   <stop offset="1" style="stop-opacity:0; stop-color:white"/>
  </linearGradient>
    <rect style="fill:url(#id9)" x="1.98072e+006" y="2.75546e+006" width="835454" height="1.02255e+006"/>
   </mask>
   <mask id="id10">
  <linearGradient id="id11" gradientUnits="userSpaceOnUse" x1="2.74767e+006" y1="3.75025e+006" x2="2.04924e+006" y2="4.82395e+006">
   <stop offset="0" style="stop-opacity:1; stop-color:white"/>
   <stop offset="1" style="stop-opacity:0; stop-color:white"/>
  </linearGradient>
    <rect style="fill:url(#id11)" x="1.98074e+006" y="3.7734e+006" width="835437" height="1.02739e+006"/>
   </mask>
   <mask id="id12">
  <linearGradient id="id13" gradientUnits="userSpaceOnUse" x1="2.59384e+006" y1="3.62911e+006" x2="2.13276e+006" y2="2.90437e+006">
   <stop offset="0" style="stop-opacity:1; stop-color:white"/>
   <stop offset="1" style="stop-opacity:0; stop-color:white"/>
  </linearGradient>
    <rect style="fill:url(#id13)" x="1.94557e+006" y="2.75546e+006" width="835454" height="1.02255e+006"/>
   </mask>
  <linearGradient id="id14" gradientUnits="userSpaceOnUse" x1="1.97364e+006" y1="4.46525e+006" x2="2.86519e+006" y2="4.46525e+006">
   <stop offset="0" style="stop-color:#003333"/>
   <stop offset="0.109804" style="stop-color:#669999"/>
   <stop offset="0.309804" style="stop-color:#FFFF66"/>
   <stop offset="0.478431" style="stop-color:#FFCC99"/>
   <stop offset="0.619608" style="stop-color:#FF9966"/>
   <stop offset="0.729412" style="stop-color:#99CCCC"/>
   <stop offset="0.988235" style="stop-color:#336666"/>
   <stop offset="1" style="stop-color:white"/>
  </linearGradient>
  <linearGradient id="id15" gradientUnits="userSpaceOnUse" xlink:href="#id14" x1="1.97365e+006" y1="3.08971e+006" x2="2.8652e+006" y2="3.08971e+006">
  </linearGradient>
  <linearGradient id="id16" gradientUnits="userSpaceOnUse" xlink:href="#id14" x1="4.80483e+006" y1="4.46525e+006" x2="3.91328e+006" y2="4.46525e+006">
  </linearGradient>
  <linearGradient id="id17" gradientUnits="userSpaceOnUse" xlink:href="#id14" x1="4.80483e+006" y1="3.08971e+006" x2="3.91328e+006" y2="3.08971e+006">
  </linearGradient>
 </defs>
 <g id="Layer_x0020_1">
  <metadata id="CorelCorpID_0Corel-Layer"/>
  <path class="fil0" d="M1.97365e+006 2.73478e+006c6325,0 11458.3,5016.67 11458.3,11204.2 0,6187.5 -5133.33,11200 -11458.3,11200 -6337.5,0 -11466.7,-5012.5 -11466.7,-11200 0,-6187.5 5129.17,-11204.2 11466.7,-11204.2z"/>
  <path class="fil0" d="M4.80765e+006 2.73827e+006c4366.67,0 7908.33,3458.33 7908.33,7729.17 0,4266.67 -3541.67,7729.17 -7908.33,7729.17 -4370.83,0 -7912.5,-3462.5 -7912.5,-7729.17 0,-4270.83 3541.67,-7729.17 7912.5,-7729.17z"/>
  <polygon class="fil1" style="mask:url(#id0)" points="1.97364e+006,4.80544e+006 2.52866e+006,4.12505e+006 2.86518e+006,4.58787e+006 "/>
  <polygon class="fil2" style="mask:url(#id2)" points="4.80483e+006,4.80544e+006 4.24982e+006,4.12505e+006 3.9133e+006,4.58787e+006 "/>
  <polygon class="fil3" style="mask:url(#id4)" points="1.97365e+006,2.74952e+006 2.52867e+006,3.4299e+006 2.86519e+006,2.96709e+006 "/>
  <polygon class="fil4" style="mask:url(#id6)" points="4.80483e+006,2.74952e+006 4.24982e+006,3.4299e+006 3.9133e+006,2.96709e+006 "/>
  <line class="fil5 str0" style="mask:url(#id8)" x1="1.98425e+006" y1="2.75899e+006" x2="2.81265e+006" y2= "3.77449e+006" />
  <line class="fil5 str0" style="mask:url(#id10)" x1="1.98426e+006" y1="4.79727e+006" x2="2.81265e+006" y2= "3.77693e+006" />
  <line class="fil5 str1" style="mask:url(#id12)" x1="1.9491e+006" y1="2.75899e+006" x2="2.7775e+006" y2= "3.77449e+006" />
 </g>
</svg>
