<?xml version="1.0" encoding="UTF-8"?>
<!DOCTYPE svg PUBLIC "-//W3C//DTD SVG 1.1//EN" "http://www.w3.org/Graphics/SVG/1.1/DTD/svg11.dtd">
<!-- Creator: CorelDRAW -->
<svg xmlns="http://www.w3.org/2000/svg" xml:space="preserve" width="1920px" height="10240px" style="shape-rendering:geometricPrecision; text-rendering:geometricPrecision; image-rendering:optimizeQuality; fill-rule:evenodd; clip-rule:evenodd"
viewBox="0 0 1920 9620"
 xmlns:xlink="http://www.w3.org/1999/xlink">
 <defs>
  <style type="text/css">
   <![CDATA[
    .str2 {stroke:#AAA9A9;stroke-width:1.00039}
    .str1 {stroke:white;stroke-width:1.99961}
    .str0 {stroke:white;stroke-width:3}
    .fil1 {fill:none}
    .fil0 {fill:white;fill-rule:nonzero}
    .fil5 {fill:url(#id12)}
    .fil3 {fill:url(#id13)}
    .fil4 {fill:url(#id14)}
    .fil2 {fill:url(#id15)}
   ]]>
  </style>
   <mask id="id0">
  <linearGradient id="id1" gradientUnits="userSpaceOnUse" x1="884.017" y1="2568.38" x2="1056.19" y2="2428.01">
   <stop offset="0" style="stop-opacity:1; stop-color:white"/>
   <stop offset="1" style="stop-opacity:0; stop-color:white"/>
  </linearGradient>
    <rect style="fill:url(#id1)" x="836.708" y="2402.21" width="266.79" height="191.965"/>
   </mask>
   <mask id="id2">
  <linearGradient id="id3" gradientUnits="userSpaceOnUse" x1="1472.55" y1="2570.33" x2="1295.59" y2="2426.06">
   <stop offset="0" style="stop-opacity:1; stop-color:white"/>
   <stop offset="1" style="stop-opacity:0; stop-color:white"/>
  </linearGradient>
    <rect style="fill:url(#id3)" x="1251" y="2402.21" width="266.135" height="191.965"/>
   </mask>
   <mask id="id4">
  <linearGradient id="id5" gradientUnits="userSpaceOnUse" x1="1468.18" y1="2366.61" x2="1299.96" y2="2503.75">
   <stop offset="0" style="stop-opacity:1; stop-color:white"/>
   <stop offset="1" style="stop-opacity:0; stop-color:white"/>
  </linearGradient>
    <rect style="fill:url(#id5)" x="1251.47" y="2344.16" width="265.2" height="182.046"/>
   </mask>
   <mask id="id6">
  <linearGradient id="id7" gradientUnits="userSpaceOnUse" x1="1179.36" y1="2365.67" x2="1008.84" y2="2504.69">
   <stop offset="0" style="stop-opacity:1; stop-color:white"/>
   <stop offset="1" style="stop-opacity:0; stop-color:white"/>
  </linearGradient>
    <rect style="fill:url(#id7)" x="964.642" y="2344.16" width="258.917" height="182.046"/>
   </mask>
   <mask id="id8">
  <linearGradient id="id9" gradientUnits="userSpaceOnUse" x1="1177.8" y1="2697.65" x2="1176.2" y2="2661.75">
   <stop offset="0" style="stop-opacity:1; stop-color:white"/>
   <stop offset="1" style="stop-opacity:0; stop-color:white"/>
  </linearGradient>
    <rect style="fill:url(#id9)" x="1155.5" y="2659.69" width="42.9992" height="40.0087"/>
   </mask>
   <mask id="id10">
  <linearGradient id="id11" gradientUnits="userSpaceOnUse" x1="1177.8" y1="2241.64" x2="1176.2" y2="2277.54">
   <stop offset="0" style="stop-opacity:1; stop-color:white"/>
   <stop offset="1" style="stop-opacity:0; stop-color:white"/>
  </linearGradient>
    <rect style="fill:url(#id11)" x="1155.5" y="2239.59" width="42.9992" height="40.0098"/>
   </mask>
  <linearGradient id="id12" gradientUnits="userSpaceOnUse" x1="967.721" y1="2435.18" x2="1220.48" y2="2435.18">
   <stop offset="0" style="stop-color:#003333"/>
   <stop offset="0.109804" style="stop-color:#669999"/>
   <stop offset="0.309804" style="stop-color:#FFFF66"/>
   <stop offset="0.478431" style="stop-color:#FFCC99"/>
   <stop offset="0.619608" style="stop-color:#FF9966"/>
   <stop offset="0.729412" style="stop-color:#99CCCC"/>
   <stop offset="0.988235" style="stop-color:#336666"/>
   <stop offset="1" style="stop-color:white"/>
  </linearGradient>
  <linearGradient id="id13" gradientUnits="userSpaceOnUse" xlink:href="#id12" x1="1256.8" y1="2498.19" x2="1511.33" y2="2498.19">
  </linearGradient>
  <linearGradient id="id14" gradientUnits="userSpaceOnUse" xlink:href="#id12" x1="1257.25" y1="2435.18" x2="1510.88" y2="2435.18">
  </linearGradient>
  <linearGradient id="id15" gradientUnits="userSpaceOnUse" xlink:href="#id12" x1="1097.68" y1="2498.19" x2="842.524" y2="2498.19">
  </linearGradient>
 </defs>
 <g id="Layer_x0020_1">
  <metadata id="CorelCorpID_0Corel-Layer"/>
  <path class="fil0 str0" d="M963.352 2342.57l428.934 0 0.512598 1.94528 -217.606 123.484 -0.522047 0.295276 -0.514961 -0.3 -211.328 -123.484 0.524409 -1.94055zm424.993 2.08346l-421.146 0 207.49 121.243 213.656 -121.243z"/>
  <path class="fil0" d="M1176.77 2224.47l-103.968 178.706 206.924 0 -102.957 -178.706zm-109.631 179.796l107.758 -185.222 1.88504 -3.24567 1.87559 3.25276 106.71 185.222 1.87913 3.26339 -3.75945 0 -214.468 0 -3.78425 0 1.90394 -3.27047z"/>
  <polygon class="fil1 str0" points="959.169,2594.76 1174.68,2594.76 1069.01,2405.35 "/>
  <polygon class="fil1 str0" points="1283.48,2405.35 1392.29,2594.76 1174.68,2594.76 "/>
  <path class="fil0 str1" d="M965.141 2344.65l211.637 371.502 213.711 -371.502 -425.348 0zm210.728 374.104l-213.42 -374.633 -1.33465 0.308268 2.23819 -1.8626 428.934 0 1.79528 0 -0.896457 1.55906 -215.513 374.633 -0.904724 1.57087 -0.897638 -1.57559z"/>
  <polygon class="fil2" style="mask:url(#id0)" points="1103,2593.68 1032.5,2471.14 962,2593.18 "/>
  <polygon class="fil3" style="mask:url(#id2)" points="1251.5,2593.68 1320.5,2473.65 1390,2593.68 "/>
  <polygon class="fil4" style="mask:url(#id4)" points="1251.97,2346.31 1319.5,2464.14 1389.5,2344.65 "/>
  <polygon class="fil5" style="mask:url(#id6)" points="965.141,2344.65 1034.9,2462.21 1100.9,2347.19 "/>
  <polyline class="fil1 str2" style="mask:url(#id8)" points="1156,2661.19 1177,2699.2 1198,2660.19 "/>
  <polyline class="fil1 str2" style="mask:url(#id10)" points="1156,2278.09 1177,2240.08 1198,2279.1 "/>
 </g>
</svg>
